<svg xmlns="http://www.w3.org/2000/svg" width="37.906" height="46.376" viewBox="0 0 37.906 46.376">
  <g id="Untitled-7_Recovered_-02" data-name="Untitled-7 [Recovered]-02" transform="translate(-69.01 -24.52)">
    <path id="타원_50" data-name="타원 50" d="M17.953-1a18.948,18.948,0,0,1,13.4,32.355A18.953,18.953,0,1,1,10.575.49,18.836,18.836,0,0,1,17.953-1Zm0,35.906A16.953,16.953,0,1,0,1,17.953,16.972,16.972,0,0,0,17.953,34.906Z" transform="translate(70.01 33.989)" fill="#fff"/>
    <path id="타원_51" data-name="타원 51" d="M8.977-1A9.977,9.977,0,1,1-1,8.977,9.988,9.988,0,0,1,8.977-1Zm0,17.954A7.977,7.977,0,1,0,1,8.977,7.986,7.986,0,0,0,8.977,16.954Z" transform="translate(78.986 42.966)" fill="#fff"/>
    <text id="_0" data-name="0" transform="translate(86.963 39.835)" fill="#fff" font-size="4" font-family="MyriadPro-Regular, Myriad Pro"><tspan x="0" y="0">0</tspan></text>
    <text id="_9" data-name="9" transform="translate(73.366 53.612)" fill="#fff" font-size="4" font-family="MyriadPro-Regular, Myriad Pro"><tspan x="0" y="0">9</tspan></text>
    <text id="_6" data-name="6" transform="translate(87.963 66.339)" fill="#fff" font-size="4" font-family="MyriadPro-Regular, Myriad Pro"><tspan x="0" y="0">6</tspan></text>
    <text id="_3" data-name="3" transform="translate(99.973 52.612)" fill="#fff" font-size="4" font-family="MyriadPro-Regular, Myriad Pro"><tspan x="0" y="0">3</tspan></text>
    <circle id="타원_52" data-name="타원 52" cx="0.84" cy="0.84" r="0.84" transform="translate(75.887 44.257)" fill="#fff"/>
    <circle id="타원_53" data-name="타원 53" cx="0.84" cy="0.84" r="0.84" transform="translate(80.407 39.995)" fill="#fff"/>
    <circle id="타원_54" data-name="타원 54" cx="0.84" cy="0.84" r="0.84" transform="translate(94.227 39.995)" fill="#fff"/>
    <circle id="타원_55" data-name="타원 55" cx="0.84" cy="0.84" r="0.84" transform="translate(98.747 44.774)" fill="#fff"/>
    <circle id="타원_56" data-name="타원 56" cx="0.84" cy="0.84" r="0.84" transform="translate(98.747 57.432)" fill="#fff"/>
    <circle id="타원_57" data-name="타원 57" cx="0.84" cy="0.84" r="0.84" transform="translate(94.227 62.339)" fill="#fff"/>
    <circle id="타원_58" data-name="타원 58" cx="0.84" cy="0.84" r="0.84" transform="translate(81.698 62.986)" fill="#fff"/>
    <circle id="타원_59" data-name="타원 59" cx="0.84" cy="0.84" r="0.84" transform="translate(76.532 58.724)" fill="#fff"/>
    <path id="패스_41" data-name="패스 41" d="M190.213,30.483l5.963-5.963H184.25Z" transform="translate(-102.35)" fill="#fff"/>
  </g>
</svg>
