<svg xmlns="http://www.w3.org/2000/svg" width="55" height="57.939" viewBox="0 0 55 57.939">
  <g id="Layer_3_copy_2" transform="translate(-5 -3.531)">
    <g id="그룹_1" data-name="그룹 1">
      <path id="패스_1" data-name="패스 1" d="M32.5,5A27.309,27.309,0,0,0,17.8,9.281l-5.75-5.75v16.11h16.11l-6.4-6.4A21.834,21.834,0,0,1,32.5,10.426,22.035,22.035,0,0,1,52.974,40.7l4.738,2.762A27.486,27.486,0,0,0,32.5,5Z" fill="#fff"/>
      <path id="패스_2" data-name="패스 2" d="M43.227,51.746A21.817,21.817,0,0,1,32.5,54.573,22.015,22.015,0,0,1,11.867,24.729L7.136,21.878A27.467,27.467,0,0,0,47.191,55.711l5.758,5.759V45.358H36.838Z" fill="#fff"/>
    </g>
  </g>
</svg>
