<svg id="swap" xmlns="http://www.w3.org/2000/svg" width="43.837" height="43.837" viewBox="0 0 43.837 43.837">
  <g id="그룹_6" data-name="그룹 6" transform="translate(26.512 24.053)">
    <g id="그룹_5" data-name="그룹 5">
      <path id="패스_5" data-name="패스 5" d="M305.809,276.03a2.452,2.452,0,0,0-2.452-2.452h-.817v-1.635H300.9v1.635h-.811l.013-1.628-1.635-.013-.013,1.641H296v1.635h1.635v8.174H296v1.635h2.459l.013,1.641,1.635-.013-.013-1.628h.811v1.635h1.635v-1.635h.817a2.452,2.452,0,0,0,2.452-2.452v-1.635a2.436,2.436,0,0,0-.638-1.635,2.437,2.437,0,0,0,.638-1.635Zm-1.635,6.539a.817.817,0,0,1-.817.817H299.27v-3.27h4.087a.817.817,0,0,1,.817.817Zm0-4.9a.817.817,0,0,1-.817.817H299.27v-3.27h4.087a.817.817,0,0,1,.817.817Z" transform="translate(-296 -271.936)" fill="#fff"/>
    </g>
  </g>
  <g id="그룹_8" data-name="그룹 8" transform="translate(18.996 18.996)">
    <g id="그룹_7" data-name="그룹 7">
      <path id="패스_6" data-name="패스 6" d="M220.421,208a12.421,12.421,0,1,0,12.421,12.421A12.421,12.421,0,0,0,220.421,208Zm0,23.38a10.959,10.959,0,1,1,10.959-10.959A10.959,10.959,0,0,1,220.421,231.38Z" transform="translate(-208 -208)" fill="#fff"/>
    </g>
  </g>
  <g id="그룹_12" data-name="그룹 12">
    <g id="그룹_11" data-name="그룹 11">
      <path id="패스_8" data-name="패스 8" d="M12.421,0A12.421,12.421,0,1,0,24.841,12.421,12.421,12.421,0,0,0,12.421,0Zm0,23.38A10.959,10.959,0,1,1,23.38,12.421,10.972,10.972,0,0,1,12.421,23.38Z" fill="#fff"/>
    </g>
  </g>
  <g id="그룹_14" data-name="그룹 14" transform="translate(8.205 4.833)">
    <g id="그룹_13" data-name="그룹 13">
      <path id="패스_9" data-name="패스 9" d="M100.215,70.744c-1.371,0-2.529-.772-2.529-1.686s1.158-1.686,2.529-1.686,2.529.772,2.529,1.686a.843.843,0,0,0,1.686,0,3.668,3.668,0,0,0-3.372-3.3V64H99.372v1.754A3.668,3.668,0,0,0,96,69.058c0,1.86,1.891,3.372,4.215,3.372,1.371,0,2.529.772,2.529,1.686s-1.158,1.686-2.529,1.686-2.529-.772-2.529-1.686a.843.843,0,0,0-1.686,0,3.668,3.668,0,0,0,3.372,3.3v1.754h1.686V77.421a3.668,3.668,0,0,0,3.372-3.3C104.431,72.257,102.54,70.744,100.215,70.744Z" transform="translate(-96 -64)" fill="#fff"/>
    </g>
  </g>
  <g id="그룹_16" data-name="그룹 16" transform="translate(25.269 4.42)">
    <g id="그룹_15" data-name="그룹 15">
      <path id="패스_10" data-name="패스 10" d="M282.835,51.286h-3.351l1.852-1.853L280.3,48.4l-3.616,3.617,3.616,3.617,1.033-1.033-1.852-1.853h3.351a6.583,6.583,0,0,1,6.576,6.576v3.653h1.461V59.323A8.046,8.046,0,0,0,282.835,51.286Z" transform="translate(-276.688 -48.4)" fill="#fff"/>
    </g>
  </g>
  <g id="그룹_18" data-name="그룹 18" transform="translate(4.384 24.841)">
    <g id="그룹_17" data-name="그룹 17">
      <path id="패스_11" data-name="패스 11" d="M57.838,279.343,56.8,280.376l1.852,1.853h-2.62a6.583,6.583,0,0,1-6.576-6.576V272H48v3.653a8.046,8.046,0,0,0,8.037,8.037h2.62L56.8,285.543l1.033,1.033,3.616-3.617Z" transform="translate(-48 -272)" fill="#fff"/>
    </g>
  </g>
</svg>
