<svg xmlns="http://www.w3.org/2000/svg" width="35.022" height="35.03" viewBox="0 0 35.022 35.03">
  <g id="team_1" transform="translate(0.003 0.015)">
    <path id="패스_54" data-name="패스 54" d="M31.181,25.731A13.284,13.284,0,0,0,27.4,23.083a8.761,8.761,0,1,0-11.022,0A13.168,13.168,0,0,0,8.754,34.659a.346.346,0,0,0,.342.356h2.463a.343.343,0,0,0,.349-.335,9.988,9.988,0,0,1,19.964,0,.348.348,0,0,0,.349.335H34.67a.35.35,0,0,0,.349-.349v-.007A12.979,12.979,0,0,0,31.181,25.731ZM21.89,21.879a5.607,5.607,0,0,1-5.6-5.665,5.607,5.607,0,0,1,11.213.055,5.618,5.618,0,0,1-5.61,5.61ZM10.923,17.432a10.813,10.813,0,0,1-.062-1.156,11.133,11.133,0,0,1,.192-2.039.353.353,0,0,0-.2-.383,5.5,5.5,0,0,1-1.615-1.1,5.607,5.607,0,0,1,7.731-8.121,5.753,5.753,0,0,1,.9,1.067.348.348,0,0,0,.41.137,10.633,10.633,0,0,1,2.422-.54.349.349,0,0,0,.274-.506A8.764,8.764,0,1,0,7.632,15.543,13.171,13.171,0,0,0,0,27.126a.346.346,0,0,0,.342.356H2.8a.343.343,0,0,0,.349-.335,9.994,9.994,0,0,1,7.505-9.332A.362.362,0,0,0,10.923,17.432Z" transform="translate(0 0)" fill="#fff"/>
  </g>
</svg>
