<svg xmlns="http://www.w3.org/2000/svg" width="40.926" height="37.332" viewBox="0 0 40.926 37.332">
  <g id="Layer_2" data-name="Layer 2" transform="translate(-16.45 -34.778)">
    <path id="패스_38" data-name="패스 38" d="M45.682,51.97a14.179,14.179,0,0,0-10.06-10.587c-.178-.05-.359-.1-.54-.14h.066l-.2-.044-.243-.054c-.041-.021.008-.167.07-.4.031-.115.063-.253.091-.409a3.816,3.816,0,0,0,.058-.568,3.4,3.4,0,0,0-.017-.419,3.2,3.2,0,0,0-.262-.982h0a5.541,5.541,0,0,0-2.8-2.54h0A10.741,10.741,0,0,0,31.73,38.8l-.042.012.042-.011a4.846,4.846,0,0,0,.218.962c.013.039.028.078.042.115a.068.068,0,0,1,0,.01,2.552,2.552,0,0,0,.45.764,1.775,1.775,0,0,0,.14.146,1.8,1.8,0,0,0,.543.347,3.908,3.908,0,0,0-1.38.212,12.427,12.427,0,0,0-1.985.832q-.411.21-.832.449l-.132.077-.32-.228-.327-.231-.523-.37-.37-.26h-.007l-.469-.331h0L17.55,34.791a.121.121,0,0,0-.159.171l7.774,7.715h0l.21.206.493.485.217.216.483.479-.013.011-.525.513-.184.149h0c-.411.331-.8.668-1.145,1a4.88,4.88,0,0,0-1.725,2.6c-.1,1.873-5.027,8.726-5.833,9.475a2.16,2.16,0,0,0-.683,1.422,1.87,1.87,0,0,0,.6,1.72,4.76,4.76,0,0,0,2.859.591s.394.3,1.873-1.479c1.291-1.551,4.692-2.689,5.816-3.056.149-.049,1.19-.309,1.676-.394,1.676-.3,1.709.07,3.746-1.183C35.593,53.854,35,51.882,35,51.882s-.273-1.506.887-.887c1.434.765-1.5,12.42-7.731,14.258a.824.824,0,0,0-.591.728l-.416,5.575a.5.5,0,0,0,.5.534l10.733-.054a8.632,8.632,0,0,0,8.576-9.075A70.513,70.513,0,0,0,45.682,51.97Zm-18.916-.38c-.681,0-1.232-1.054-1.232-2.353a15.837,15.837,0,0,1,2.189-1.479A3.844,3.844,0,0,1,28,49.238C28,50.537,27.446,51.59,26.766,51.59Z" transform="translate(0 0)" fill="#fff"/>
    <path id="패스_39" data-name="패스 39" d="M136.136,89.782l.1.067.566.394h0c.709-.311,2.276-.81,2.261-.833a3.934,3.934,0,0,1-.405-.841h0l-.242.063c-.088.023-.174.047-.262.073a14.181,14.181,0,0,0-2.281.887l-.011-.008h0l.011.008Z" transform="translate(-107.639 -48.49)" fill="#fff"/>
    <path id="패스_40" data-name="패스 40" d="M229.57,107.78c-.552-4.85-1.739-13.753-3.351-17.326a16.515,16.515,0,0,0-13.688-9.064h0a4.331,4.331,0,0,1,.01.462,4.718,4.718,0,0,1-.042.483,5.385,5.385,0,0,1-.1.536c3.075.493,5.731,2.247,8.8,6.4,2.281,3.086,2.941,11.9,3.13,17.322,0,.1.011.2.021.3.13,2.225,1.312,7.536,9.66,7.224A8.816,8.816,0,0,1,229.57,107.78Z" transform="translate(-176.634 -42.018)" fill="#fff"/>
  </g>
</svg>
