<svg xmlns="http://www.w3.org/2000/svg" width="44.463" height="34.353" viewBox="0 0 44.463 34.353">
  <g id="Untitled-7_Recovered_-01" data-name="Untitled-7 [Recovered]-01" transform="translate(-48.67 -117.198)">
    <path id="패스_42" data-name="패스 42" d="M292.823,159.319a3.3,3.3,0,0,1,1.9,2.622v.21a2.67,2.67,0,0,1-.059.5l-.007.029c-.015.065-.032.125-.05.184a2.359,2.359,0,0,1-.12.307c0,.007-.007.015-.01.021-.015.03-.031.06-.047.089l-.021.038a3.448,3.448,0,0,1-2.835,1.623h-.019c-.08,0-.16.007-.238.007H291.3c-.067,0-.132,0-.2-.005l-.1-.007h-.048l-.069-.005c-.057-.006-.113-.013-.169-.021l-.055-.007c-.065-.01-.131-.021-.2-.033l-.029-.005a4.859,4.859,0,0,1-.508-.127L286.9,175.422a1.243,1.243,0,0,0,.857,1.533l8.92,2.521,6.981-24.708-8.9-2.52a1.242,1.242,0,0,0-1.533.856l-1.608,5.681,1.149.5Z" transform="translate(-220.611 -32.42)" fill="none"/>
    <path id="패스_43" data-name="패스 43" d="M499.621,207.56l-1.342-.38L491.3,231.888l1.328.375a1.243,1.243,0,0,0,1.527-.856l6.319-22.314A1.243,1.243,0,0,0,499.621,207.56Z" transform="translate(-409.974 -83.344)" fill="none"/>
    <path id="패스_44" data-name="패스 44" d="M264.58,301l.182.058L264.58,301Z" transform="translate(-199.981 -170.242)" fill="none"/>
    <rect id="사각형_80" data-name="사각형 80" transform="translate(71.046 128.394) rotate(-63.43)" fill="#fff"/>
    <path id="패스_45" data-name="패스 45" d="M319.091,327.373l-.069-.025L319,327.34l-.124-.046-.141-.044,0,.016.553.169h0C319.219,327.416,319.155,327.4,319.091,327.373Z" transform="translate(-250.136 -194.555)" fill="#fff"/>
    <rect id="사각형_81" data-name="사각형 81" width="0.032" transform="translate(69.717 133.051) rotate(-45)" fill="#fff"/>
    <rect id="사각형_82" data-name="사각형 82" width="0.006" transform="translate(69.26 130.361) rotate(-74.19)" fill="#fff"/>
    <path id="패스_46" data-name="패스 46" d="M331.364,314.592h-.026a4.329,4.329,0,0,1-.449-.112h0l.553.168.01-.037Z" transform="translate(-261.398 -182.727)" fill="#fff"/>
    <path id="패스_47" data-name="패스 47" d="M343.2,297.464h0l.052-.184Z" transform="translate(-272.8 -166.796)" fill="#fff"/>
    <path id="패스_48" data-name="패스 48" d="M328.321,295.731h0c-.083-.027-.159-.054-.23-.083l-.311-.1v.006l.54.175Z" transform="translate(-258.518 -165.194)" fill="#fff"/>
    <path id="패스_49" data-name="패스 49" d="M327.793,294.45l-.023.081h0Z" transform="translate(-258.509 -164.175)" fill="#fff"/>
    <path id="패스_50" data-name="패스 50" d="M335.7,298.187l.015-.055a3.215,3.215,0,0,1-.6-.131Z" transform="translate(-265.316 -167.463)" fill="#fff"/>
    <rect id="사각형_83" data-name="사각형 83" width="1.192" transform="translate(70.247 126.937)" fill="#fff"/>
    <path id="패스_51" data-name="패스 51" d="M337.14,262.45l.928.405-.928-.405Z" transform="translate(-267.187 -134.536)" fill="#fff"/>
    <path id="패스_52" data-name="패스 52" d="M349.72,267.94l.164.072h0Z" transform="translate(-278.839 -139.621)" fill="#fff"/>
    <rect id="사각형_84" data-name="사각형 84" width="1.192" transform="translate(70.238 126.678) rotate(-68.2)" fill="#fff"/>
    <path id="패스_53" data-name="패스 53" d="M90.351,121.732l-15.5-4.39a3.828,3.828,0,0,0-4.722,2.638l-1.515,5.341L64.906,123.7a.118.118,0,0,1-.032-.021,3.262,3.262,0,0,0-2.287-.9,4.968,4.968,0,0,0-2.764.943l-7.691,5.323a.27.27,0,0,1-.153.048H48.939a.269.269,0,0,0-.269.267V142.23a.153.153,0,0,0,.153.153l13.2.01.829-2.442H53.4a.27.27,0,0,1-.27-.27V131.45a.269.269,0,0,1,.117-.221l7.98-5.517.026-.018a3.2,3.2,0,0,1,.89-.418,1.739,1.739,0,0,1,.454-.069.863.863,0,0,1,.688.317l.137.153a.264.264,0,0,0,.093.067l4.438,1.938,2.388,1.044.7.308.033.017c.466.28.53.43.535.606v.057a.252.252,0,0,1-.074.179l-.007.007c-.133.141-.342.2-.8.2a2.43,2.43,0,0,1-.743-.123c-.064-.021-.128-.044-.192-.069l-.023-.009-2.247-.709-3.862-1.22a.271.271,0,0,0-.323.135l-.369.7c-.005.009-.028.051-.069.119-.018.032-.04.068-.066.109l-.069.109a8.369,8.369,0,0,1-.571.781,4.433,4.433,0,0,1-3.184,1.844c-.06,0-.12,0-.18-.006l-.378-.024a.27.27,0,0,0-.286.252l-.12,1.889a.27.27,0,0,0,.252.286l.378.024c.114.007.229.011.342.011a6.057,6.057,0,0,0,4.112-1.74l.045-.041a.27.27,0,0,0,.087-.2v.117l.046-.044.04-.038c.074-.074.148-.143.216-.218l.047-.049c.074-.074.148-.153.21-.227l.01-.012c.055-.062.108-.123.159-.184.087-.1.174-.21.26-.319l.018-.024c.079-.1.156-.205.231-.308l.027-.036a.118.118,0,0,1,.131-.044l2.2.7-3.051,10.769a3.828,3.828,0,0,0,2.637,4.722l15.5,4.39a3.822,3.822,0,0,0,4.722-2.638l6.319-22.313A3.828,3.828,0,0,0,90.351,121.732ZM64.6,130.758h0l.182.058Zm2.552,13.772A1.243,1.243,0,0,1,66.295,143l3.025-10.682c.17.052.34.094.508.127l.03.005c.066.013.131.024.2.033l.055.007c.056.007.112.015.169.021l.069.005h.048l.1.007c.066,0,.131,0,.2.005h.022c.078,0,.158,0,.238-.007h.019a3.431,3.431,0,0,0,2.835-1.623l.021-.037c.016-.03.032-.059.047-.089,0-.007.007-.014.01-.021a2.362,2.362,0,0,0,.12-.307c.018-.059.035-.12.05-.184l.007-.029a2.669,2.669,0,0,0,.059-.5v-.21a3.3,3.3,0,0,0-1.9-2.622l-.057-.032-1.15-.5,1.608-5.681a1.242,1.242,0,0,1,1.529-.852l8.9,2.52-6.981,24.708ZM90.5,125.75l-6.322,22.314a1.243,1.243,0,0,1-1.533.856l-1.328-.375L88.3,123.836l1.342.38a1.243,1.243,0,0,1,.862,1.533Z" fill="#fff"/>
  </g>
</svg>
