<svg xmlns="http://www.w3.org/2000/svg" width="30.511" height="39.551" viewBox="0 0 30.511 39.551">
  <g id="그룹_2" data-name="그룹 2" transform="translate(-128 -732)">
    <path id="패스_3" data-name="패스 3" d="M3.39,2.5a.891.891,0,0,0-.89.89V36.161a.891.891,0,0,0,.89.89H27.121a.891.891,0,0,0,.89-.89V12.624c-.256-.3-.579-.68-.944-1.112-1.022-1.21-2.225-2.646-3.3-3.94-1.351-1.626-2.491-3.016-3.3-4.021-.324-.4-.6-.749-.836-1.051H3.39m0-2.5H20.946c-.253.1,9.474,11.646,9.565,11.688V36.161a3.39,3.39,0,0,1-3.39,3.39H3.39A3.39,3.39,0,0,1,0,36.161V3.39A3.39,3.39,0,0,1,3.39,0Z" transform="translate(128 732)" fill="#fff"/>
    <path id="선_10" data-name="선 10" d="M1.25,11.3h-2.5V0h2.5Z" transform="translate(147.776 733.695)" fill="#fff"/>
    <path id="선_11" data-name="선 11" d="M9.605,1.25H0v-2.5H9.605Z" transform="translate(146.646 743.865)" fill="#fff"/>
    <path id="선_12" data-name="선 12" d="M6.78.75H0A.75.75,0,0,1-.75,0,.75.75,0,0,1,0-.75H6.78A.75.75,0,0,1,7.53,0,.75.75,0,0,1,6.78.75Z" transform="translate(135.382 743.865)" fill="#fff"/>
    <path id="선_13" data-name="선 13" d="M15.747.75H0A.75.75,0,0,1-.75,0,.75.75,0,0,1,0-.75H15.747A.75.75,0,0,1,16.5,0,.75.75,0,0,1,15.747.75Z" transform="translate(135.382 749.513)" fill="#fff"/>
    <path id="선_14" data-name="선 14" d="M15.747.75H0A.75.75,0,0,1-.75,0,.75.75,0,0,1,0-.75H15.747A.75.75,0,0,1,16.5,0,.75.75,0,0,1,15.747.75Z" transform="translate(135.382 755.16)" fill="#fff"/>
    <path id="선_15" data-name="선 15" d="M15.747.75H0A.75.75,0,0,1-.75,0,.75.75,0,0,1,0-.75H15.747A.75.75,0,0,1,16.5,0,.75.75,0,0,1,15.747.75Z" transform="translate(135.382 760.807)" fill="#fff"/>
  </g>
</svg>
